<?xml version="1.0" encoding="utf-8"?>
<!-- Generator: Adobe Illustrator 19.0.0, SVG Export Plug-In . SVG Version: 6.00 Build 0)  -->
<svg version="1.1" id="Layer_1" xmlns="http://www.w3.org/2000/svg" xmlns:xlink="http://www.w3.org/1999/xlink" x="0px" y="0px"
	 viewBox="-261 352.7 88.7 88.3" style="enable-background:new -261 352.7 88.7 88.3;" xml:space="preserve">
<style type="text/css">
	.st0{fill:#35363A;}
</style>
<path class="st0" d="M-237.7,383.2c-9,10.2-8,25.7,2.1,34.6c10,8.8,25.2,8,34.2-1.7l0,0c0.1-0.1,0.1-0.2,0.2-0.3l0.1-0.1
	c0.2-0.2,0.3-0.4,0.4-0.6c10.3-12.1,8-36.7,7.3-45.2c-22.4-1-34.9,5.5-40.6,9.8c-0.2,0.1-0.4,0.3-0.6,0.5c-0.6,0.5-1.1,0.9-1.6,1.3
	l0,0C-237.2,382.5-237.7,383.2-237.7,383.2z"/>
</svg>
